<?xml version="1.0" encoding="iso-8859-1"?>
<!-- Generator: Adobe Illustrator 19.0.0, SVG Export Plug-In . SVG Version: 6.00 Build 0)  -->
<svg version="1.1" id="Capa_1" xmlns="http://www.w3.org/2000/svg" xmlns:xlink="http://www.w3.org/1999/xlink" x="0px" y="0px"
	 viewBox="0 0 423.536 423.536" style="enable-background:new 0 0 423.536 423.536;" xml:space="preserve">
<g>
	<g>
		<path fill="white" d="M420.96,238.807l-61.6-56.64c-3.249-2.994-8.31-2.788-11.304,0.461c-0.102,0.11-0.2,0.224-0.296,0.339l-32.4,40v-85.36
			c0.007-0.869-0.128-1.734-0.4-2.56l-27.44-81.52v-30.24c0-4.418-3.582-8-8-8H35.76c-4.418,0-8,3.582-8,8v30.24L0.4,135.047
			c-0.272,0.826-0.407,1.691-0.4,2.56v262.64c0,4.418,3.582,8,8,8h128c3.887,0.071,7.262-2.663,8-6.48l13.6-70.88l13.6,70.88
			c0.738,3.817,4.113,6.551,8,6.48h128c2.604-0.048,5.022-1.362,6.48-3.52l108.4-155.44
			C424.386,246.007,423.907,241.526,420.96,238.807z M89.28,31.287h5.76v15.6h-5.76V31.287z M43.76,31.287h29.52v15.6H43.76V31.287z
			 M16,138.887l25.52-76H61.2c-2.4,18.8-11.76,64-45.2,77.44V138.887z M129.6,392.247H16v-235.12c48-14.08,58.96-72.88,61.36-94.24
			h72l0.32,224.8L129.6,392.247z M149.68,46.807h-38.56v-15.52h38.56V46.807z M242,31.287h29.52v15.6H242V31.287z M220.24,31.287
			H226v15.6h-5.76V31.287z M165.68,31.287h38.56v15.6h-38.56V31.287z M165.68,62.887h18.08v120
			c1.147,14.149-5.911,27.706-18.16,34.88L165.68,62.887z M299.28,392.247H185.76l-20.08-104.56v-52.96
			c22.102-7.824,36.117-29.603,34.08-52.96V62.887h38.16c2.4,21.36,13.52,80,61.36,94.24V392.247z M299.28,140.327
			c-33.36-13.52-42.72-58.64-45.2-77.44h19.68l25.52,76V140.327z M315.28,374.727v-126.88l24-29.12l51.76,47.36L315.28,374.727z
			 M400.08,252.807l-50.88-46.48l5.52-6.72l50.24,46.24L400.08,252.807z"/>
	</g>
</g>
<g>
</g>
<g>
</g>
<g>
</g>
<g>
</g>
<g>
</g>
<g>
</g>
<g>
</g>
<g>
</g>
<g>
</g>
<g>
</g>
<g>
</g>
<g>
</g>
<g>
</g>
<g>
</g>
<g>
</g>
</svg>
